<svg width="141" height="182" viewBox="0 0 141 182" fill="none" xmlns="http://www.w3.org/2000/svg">
<rect x="21" y="15.5737" width="107" height="150.885" fill="white"/>
<g filter="url(#filter0_d)">
<path d="M121.334 3H20.6048C10.8976 3 3 10.6387 3 20.0276V162.972C3 172.361 10.8976 180 20.6048 180H121.334C131.041 180 138.939 172.361 138.939 162.972V20.0276C138.939 10.6387 131.041 3 121.334 3ZM27.1292 32.418C27.1292 29.5541 29.5296 27.2324 32.4905 27.2324H109.448C112.409 27.2324 114.809 29.5541 114.809 32.418V42.657C114.809 45.5208 112.409 47.8425 109.448 47.8425H32.4905C29.5296 47.8425 27.1292 45.5208 27.1292 42.657V32.418ZM45.1794 148.858C45.1794 151.721 42.7789 154.043 39.818 154.043H32.4909C29.53 154.043 27.1295 151.721 27.1295 148.858V143.945C27.1295 141.081 29.53 138.759 32.4909 138.759H39.818C42.7789 138.759 45.1794 141.081 45.1794 143.945V148.858ZM45.1794 118.17C45.1794 121.033 42.7789 123.355 39.818 123.355H32.4909C29.53 123.355 27.1295 121.033 27.1295 118.17V113.256C27.1295 110.393 29.53 108.071 32.4909 108.071H39.818C42.7789 108.071 45.1794 110.393 45.1794 113.256V118.17ZM80.4337 148.858C80.4337 151.721 78.0332 154.043 75.0723 154.043H67.7452C64.7839 154.043 62.3839 151.721 62.3839 148.858V143.945C62.3839 141.081 64.7839 138.759 67.7452 138.759H75.0723C78.0332 138.759 80.4337 141.081 80.4337 143.945V148.858ZM80.4337 118.17C80.4337 121.033 78.0332 123.355 75.0723 123.355H67.7452C64.7839 123.355 62.3839 121.033 62.3839 118.17V113.256C62.3839 110.393 64.7839 108.071 67.7452 108.071H75.0723C78.0332 108.071 80.4337 110.393 80.4337 113.256V118.17ZM80.4337 87.4812C80.4337 90.3453 78.0332 92.6667 75.0723 92.6667H32.4905C29.5296 92.6667 27.1292 90.345 27.1292 87.4812V82.5681C27.1292 79.7043 29.5296 77.3825 32.4905 77.3825H75.0723C78.0332 77.3825 80.4337 79.7043 80.4337 82.5681V87.4812ZM115.688 148.858C115.688 151.721 113.288 154.043 110.327 154.043H103C100.039 154.043 97.6382 151.721 97.6382 148.858V143.945C97.6382 141.081 100.039 138.759 103 138.759H110.327C113.288 138.759 115.688 141.081 115.688 143.945V148.858ZM115.688 118.17C115.688 121.033 113.288 123.355 110.327 123.355H103C100.039 123.355 97.6382 121.033 97.6382 118.17V113.256C97.6382 110.393 100.039 108.071 103 108.071H110.327C113.288 108.071 115.688 110.393 115.688 113.256V118.17ZM115.688 87.4812C115.688 90.3453 113.288 92.6667 110.327 92.6667H103C100.039 92.6667 97.6382 90.345 97.6382 87.4812V82.5681C97.6382 79.7043 100.039 77.3825 103 77.3825H110.327C113.288 77.3825 115.688 79.7043 115.688 82.5681V87.4812Z" fill="#45BCE8"/>
<path d="M121.334 3H20.6048C10.8976 3 3 10.6387 3 20.0276V162.972C3 172.361 10.8976 180 20.6048 180H121.334C131.041 180 138.939 172.361 138.939 162.972V20.0276C138.939 10.6387 131.041 3 121.334 3ZM27.1292 32.418C27.1292 29.5541 29.5296 27.2324 32.4905 27.2324H109.448C112.409 27.2324 114.809 29.5541 114.809 32.418V42.657C114.809 45.5208 112.409 47.8425 109.448 47.8425H32.4905C29.5296 47.8425 27.1292 45.5208 27.1292 42.657V32.418ZM45.1794 148.858C45.1794 151.721 42.7789 154.043 39.818 154.043H32.4909C29.53 154.043 27.1295 151.721 27.1295 148.858V143.945C27.1295 141.081 29.53 138.759 32.4909 138.759H39.818C42.7789 138.759 45.1794 141.081 45.1794 143.945V148.858ZM45.1794 118.17C45.1794 121.033 42.7789 123.355 39.818 123.355H32.4909C29.53 123.355 27.1295 121.033 27.1295 118.17V113.256C27.1295 110.393 29.53 108.071 32.4909 108.071H39.818C42.7789 108.071 45.1794 110.393 45.1794 113.256V118.17ZM80.4337 148.858C80.4337 151.721 78.0332 154.043 75.0723 154.043H67.7452C64.7839 154.043 62.3839 151.721 62.3839 148.858V143.945C62.3839 141.081 64.7839 138.759 67.7452 138.759H75.0723C78.0332 138.759 80.4337 141.081 80.4337 143.945V148.858ZM80.4337 118.17C80.4337 121.033 78.0332 123.355 75.0723 123.355H67.7452C64.7839 123.355 62.3839 121.033 62.3839 118.17V113.256C62.3839 110.393 64.7839 108.071 67.7452 108.071H75.0723C78.0332 108.071 80.4337 110.393 80.4337 113.256V118.17ZM80.4337 87.4812C80.4337 90.3453 78.0332 92.6667 75.0723 92.6667H32.4905C29.5296 92.6667 27.1292 90.345 27.1292 87.4812V82.5681C27.1292 79.7043 29.5296 77.3825 32.4905 77.3825H75.0723C78.0332 77.3825 80.4337 79.7043 80.4337 82.5681V87.4812ZM115.688 148.858C115.688 151.721 113.288 154.043 110.327 154.043H103C100.039 154.043 97.6382 151.721 97.6382 148.858V143.945C97.6382 141.081 100.039 138.759 103 138.759H110.327C113.288 138.759 115.688 141.081 115.688 143.945V148.858ZM115.688 118.17C115.688 121.033 113.288 123.355 110.327 123.355H103C100.039 123.355 97.6382 121.033 97.6382 118.17V113.256C97.6382 110.393 100.039 108.071 103 108.071H110.327C113.288 108.071 115.688 110.393 115.688 113.256V118.17ZM115.688 87.4812C115.688 90.3453 113.288 92.6667 110.327 92.6667H103C100.039 92.6667 97.6382 90.345 97.6382 87.4812V82.5681C97.6382 79.7043 100.039 77.3825 103 77.3825H110.327C113.288 77.3825 115.688 79.7043 115.688 82.5681V87.4812Z" stroke="#005F83" stroke-width="2"/>
</g>
<defs>
<filter id="filter0_d" x="0" y="0" width="145.939" height="187" filterUnits="userSpaceOnUse" color-interpolation-filters="sRGB">
<feFlood flood-opacity="0" result="BackgroundImageFix"/>
<feColorMatrix in="SourceAlpha" type="matrix" values="0 0 0 0 0 0 0 0 0 0 0 0 0 0 0 0 0 0 127 0"/>
<feOffset dx="2" dy="2"/>
<feGaussianBlur stdDeviation="2"/>
<feColorMatrix type="matrix" values="0 0 0 0 0 0 0 0 0 0 0 0 0 0 0 0 0 0 0.25 0"/>
<feBlend mode="normal" in2="BackgroundImageFix" result="effect1_dropShadow"/>
<feBlend mode="normal" in="SourceGraphic" in2="effect1_dropShadow" result="shape"/>
</filter>
</defs>
</svg>
