<svg width="30" height="24" viewBox="0 0 29 17" fill="none" xmlns="http://www.w3.org/2000/svg">
<path d="M27.5733 -4.99064C27.4528 -5.00312 27.3314 -5.00312 27.2109 -4.99064H2.46427C2.30566 -4.98818 2.14811 -4.96426 1.99585 -4.91953L14.7669 7.87159L27.5733 -4.99064Z" fill="#005F83"/>
<path d="M28.8814 -3.75511L16.0131 9.13378C15.682 9.46489 15.234 9.65075 14.767 9.65075C14.3 9.65075 13.852 9.46489 13.5208 9.13378L0.767433 -3.65733C0.728227 -3.51241 0.707439 -3.36307 0.705566 -3.21289V14.5649C0.705566 15.0364 0.891797 15.4886 1.22329 15.822C1.55478 16.1554 2.00438 16.3427 2.47318 16.3427H27.2198C27.6886 16.3427 28.1382 16.1554 28.4697 15.822C28.8012 15.4886 28.9875 15.0364 28.9875 14.5649V-3.21289C28.9804 -3.39809 28.9446 -3.58104 28.8814 -3.75511ZM3.684 14.5649H2.45551V13.2938L8.8808 6.88489L10.127 8.13822L3.684 14.5649ZM27.2022 14.5649H25.9648L19.5219 8.13822L20.768 6.88489L27.1933 13.2938L27.2022 14.5649Z" fill="#005F83"/>
</svg>
