<svg  height="24" viewBox="0 0 32 30" fill="#5C5C5C" xmlns="http://www.w3.org/2000/svg">
<path d="M13.4405 17.3113C15.2854 19.1936 17.5177 20.6469 19.9806 21.5691L23.3126 18.9024C23.4114 18.834 23.5285 18.7973 23.6485 18.7973C23.7684 18.7973 23.8855 18.834 23.9843 18.9024L30.171 22.9113C30.4058 23.0533 30.6047 23.2483 30.7517 23.4809C30.8988 23.7135 30.9901 23.9772 31.0184 24.2514C31.0466 24.5255 31.0112 24.8026 30.9147 25.0605C30.8183 25.3185 30.6635 25.5504 30.4626 25.7379L27.5637 28.6179C27.1486 29.0305 26.6383 29.3333 26.0785 29.4992C25.5187 29.6652 24.9268 29.6892 24.3555 29.5691C18.6569 28.3853 13.4043 25.6131 9.19817 21.5691C5.08535 17.4848 2.2393 12.288 1.00526 6.60906C0.883354 6.0434 0.908798 5.45567 1.07913 4.90281C1.24946 4.34995 1.55889 3.85072 1.97745 3.4535L4.9824 0.537945C5.16836 0.345756 5.39513 0.198367 5.64574 0.106814C5.89636 0.0152615 6.16432 -0.0180831 6.42956 0.0092777C6.6948 0.0366385 6.95046 0.123995 7.17737 0.264808C7.40429 0.40562 7.5966 0.596238 7.73989 0.82239L11.8584 6.96461C11.9295 7.06106 11.9678 7.17792 11.9678 7.29795C11.9678 7.41797 11.9295 7.53483 11.8584 7.63128L9.14514 10.9113C10.0869 13.3388 11.5542 15.525 13.4405 17.3113Z" fill="#5C5C5C"/>
</svg>
