<svg height="24" viewBox="0 0 32 31" fill="none" xmlns="http://www.w3.org/2000/svg">
<path d="M15.9085 0C7.39493 0 0.49707 6.9375 0.49707 15.5C0.49707 24.0625 7.39493 31 15.9085 31C24.4221 31 31.3199 24.0625 31.3199 15.5C31.3199 6.9375 24.4221 0 15.9085 0ZM15.9085 28C9.04171 28 3.47993 22.4062 3.47993 15.5C3.47993 8.59375 9.04171 3 15.9085 3C22.7753 3 28.3371 8.59375 28.3371 15.5C28.3371 22.4062 22.7753 28 15.9085 28ZM19.7489 21.475L14.473 17.6187C14.2804 17.475 14.1685 17.25 14.1685 17.0125V6.75C14.1685 6.3375 14.5041 6 14.9142 6H16.9028C17.3129 6 17.6485 6.3375 17.6485 6.75V15.6063L21.7996 18.6437C22.1352 18.8875 22.2036 19.3563 21.9612 19.6938L20.7929 21.3125C20.5506 21.6437 20.0845 21.7188 19.7489 21.475Z" fill="#005F83"/>
</svg>
