<svg width="37" height="37" viewBox="0 0 37 37" fill="none" xmlns="http://www.w3.org/2000/svg">
<path d="M18.2773 0.5C15.9135 0.500131 13.5729 0.965845 11.3891 1.87055C9.20528 2.77526 7.22105 4.10124 5.54969 5.77279C3.87833 7.44433 2.55257 9.42871 1.64811 11.6126C0.743642 13.7965 0.278189 16.1372 0.27832 18.501C0.278452 20.8648 0.744166 23.2054 1.64887 25.3892C2.55358 27.573 3.87956 29.5573 5.55111 31.2286C7.22265 32.9 9.20703 34.2258 11.3909 35.1302C13.5749 36.0347 15.9155 36.5001 18.2793 36.5C23.0532 36.4997 27.6315 34.6031 31.007 31.2272C34.3824 27.8514 36.2786 23.2729 36.2783 18.499C36.2781 13.7251 34.3814 9.14684 31.0055 5.77137C27.6297 2.3959 23.0512 0.499735 18.2773 0.5V0.5ZM21.4371 7.23963H23.0371V12.5993C23.0371 12.9393 23.197 12.9393 23.257 12.9393C23.497 12.9393 23.857 12.6793 24.037 12.4993V7.21963H25.6369V14.2992H24.037V13.6793C23.817 13.8793 23.597 14.0392 23.377 14.1592C23.0771 14.3192 22.7971 14.3792 22.5171 14.3792C22.3638 14.3866 22.2108 14.3599 22.069 14.3011C21.9272 14.2423 21.8003 14.1529 21.6971 14.0392C21.5171 13.8193 21.4371 13.4793 21.4371 13.0593V7.23963ZM16.3374 9.09952C16.3374 7.99958 17.2374 7.09963 18.3373 7.09963C19.4373 7.09963 20.3372 7.99958 20.3372 9.09952V12.4993C20.3372 13.5993 19.4373 14.4992 18.3373 14.4992C17.2374 14.4992 16.3374 13.5993 16.3374 12.4993V9.09952ZM12.1777 4.79976L13.1376 8.31957L14.1176 4.79976H15.9375L14.0576 10.3595V14.2992H12.2777V10.3595L10.3578 4.79976H12.1777V4.79976ZM27.9768 29.8784C26.9568 30.8783 18.3173 30.8983 18.3173 30.8983C18.3173 30.8983 9.6978 30.8783 8.65785 29.8784C7.63791 28.8784 7.63791 23.8987 7.63791 23.8587C7.63791 23.8387 7.63791 18.859 8.65785 17.839C9.6778 16.8391 18.3173 16.8191 18.3173 16.8191C18.3173 16.8191 26.9368 16.8391 27.9768 17.839C28.9967 18.839 29.0167 23.8187 29.0167 23.8587C29.0167 23.8587 29.0167 28.8584 27.9768 29.8784Z" fill="white"/>
</svg>
