<?xml version="1.0" encoding="utf-8"?><svg viewBox="0 0 141 182" xmlns="http://www.w3.org/2000/svg" xmlns:xlink="http://www.w3.org/1999/xlink"><style>:root>svg{display:none}:root>svg:target{display:block}</style><svg viewBox="0 0 26 32" fill="#5C5C5C" id="address" xmlns="http://www.w3.org/2000/svg"><path d="M11.85 31.354C2.69 18.19.988 16.838.988 12c0-6.627 5.42-12 12.104-12 6.685 0 12.105 5.373 12.105 12 0 4.838-1.7 6.19-10.86 19.354-.602.861-1.888.861-2.489 0zM13.092 17c2.786 0 5.044-2.239 5.044-5s-2.258-5-5.044-5C10.308 7 8.05 9.239 8.05 12s2.258 5 5.043 5z"/></svg><svg fill="none" viewBox="0 0 141 182" id="calculator" xmlns="http://www.w3.org/2000/svg"><path fill="#fff" d="M21 15.574h107v150.885H21z"/><g filter="url(#bfilter0_d)"><path d="M121.334 3H20.604C10.899 3 3 10.639 3 20.028v142.944C3 172.361 10.898 180 20.605 180h100.729c9.707 0 17.605-7.639 17.605-17.028V20.028c0-9.39-7.898-17.028-17.605-17.028zM27.129 32.418c0-2.864 2.4-5.186 5.361-5.186h76.958c2.961 0 5.361 2.322 5.361 5.186v10.239c0 2.864-2.4 5.186-5.361 5.186H32.491c-2.961 0-5.362-2.322-5.362-5.186V32.418zm18.05 116.44c0 2.863-2.4 5.185-5.361 5.185h-7.327c-2.961 0-5.361-2.322-5.361-5.185v-4.913c0-2.864 2.4-5.186 5.36-5.186h7.328c2.96 0 5.361 2.322 5.361 5.186v4.913zm0-30.688c0 2.863-2.4 5.185-5.361 5.185h-7.327c-2.961 0-5.361-2.322-5.361-5.185v-4.914c0-2.863 2.4-5.185 5.36-5.185h7.328c2.96 0 5.361 2.322 5.361 5.185v4.914zm35.255 30.688c0 2.863-2.4 5.185-5.362 5.185h-7.327c-2.961 0-5.361-2.322-5.361-5.185v-4.913c0-2.864 2.4-5.186 5.361-5.186h7.327c2.961 0 5.362 2.322 5.362 5.186v4.913zm0-30.688c0 2.863-2.4 5.185-5.362 5.185h-7.327c-2.961 0-5.361-2.322-5.361-5.185v-4.914c0-2.863 2.4-5.185 5.361-5.185h7.327c2.961 0 5.362 2.322 5.362 5.185v4.914zm0-30.689c0 2.864-2.4 5.186-5.362 5.186H32.49c-2.96 0-5.36-2.322-5.36-5.186v-4.913c0-2.864 2.4-5.186 5.36-5.186h42.582c2.961 0 5.362 2.322 5.362 5.186v4.913zm35.254 61.377c0 2.863-2.4 5.185-5.361 5.185H103c-2.961 0-5.362-2.322-5.362-5.185v-4.913c0-2.864 2.401-5.186 5.362-5.186h7.327c2.961 0 5.361 2.322 5.361 5.186v4.913zm0-30.688c0 2.863-2.4 5.185-5.361 5.185H103c-2.961 0-5.362-2.322-5.362-5.185v-4.914c0-2.863 2.401-5.185 5.362-5.185h7.327c2.961 0 5.361 2.322 5.361 5.185v4.914zm0-30.689c0 2.864-2.4 5.186-5.361 5.186H103c-2.961 0-5.362-2.322-5.362-5.186v-4.913c0-2.864 2.401-5.186 5.362-5.186h7.327c2.961 0 5.361 2.322 5.361 5.186v4.913z" fill="#45BCE8"/><path d="M121.334 3H20.604C10.899 3 3 10.639 3 20.028v142.944C3 172.361 10.898 180 20.605 180h100.729c9.707 0 17.605-7.639 17.605-17.028V20.028c0-9.39-7.898-17.028-17.605-17.028zM27.129 32.418c0-2.864 2.4-5.186 5.361-5.186h76.958c2.961 0 5.361 2.322 5.361 5.186v10.239c0 2.864-2.4 5.186-5.361 5.186H32.491c-2.961 0-5.362-2.322-5.362-5.186V32.418zm18.05 116.44c0 2.863-2.4 5.185-5.361 5.185h-7.327c-2.961 0-5.361-2.322-5.361-5.185v-4.913c0-2.864 2.4-5.186 5.36-5.186h7.328c2.96 0 5.361 2.322 5.361 5.186v4.913zm0-30.688c0 2.863-2.4 5.185-5.361 5.185h-7.327c-2.961 0-5.361-2.322-5.361-5.185v-4.914c0-2.863 2.4-5.185 5.36-5.185h7.328c2.96 0 5.361 2.322 5.361 5.185v4.914zm35.255 30.688c0 2.863-2.4 5.185-5.362 5.185h-7.327c-2.961 0-5.361-2.322-5.361-5.185v-4.913c0-2.864 2.4-5.186 5.361-5.186h7.327c2.961 0 5.362 2.322 5.362 5.186v4.913zm0-30.688c0 2.863-2.4 5.185-5.362 5.185h-7.327c-2.961 0-5.361-2.322-5.361-5.185v-4.914c0-2.863 2.4-5.185 5.361-5.185h7.327c2.961 0 5.362 2.322 5.362 5.185v4.914zm0-30.689c0 2.864-2.4 5.186-5.362 5.186H32.49c-2.96 0-5.36-2.322-5.36-5.186v-4.913c0-2.864 2.4-5.186 5.36-5.186h42.582c2.961 0 5.362 2.322 5.362 5.186v4.913zm35.254 61.377c0 2.863-2.4 5.185-5.361 5.185H103c-2.961 0-5.362-2.322-5.362-5.185v-4.913c0-2.864 2.401-5.186 5.362-5.186h7.327c2.961 0 5.361 2.322 5.361 5.186v4.913zm0-30.688c0 2.863-2.4 5.185-5.361 5.185H103c-2.961 0-5.362-2.322-5.362-5.185v-4.914c0-2.863 2.401-5.185 5.362-5.185h7.327c2.961 0 5.361 2.322 5.361 5.185v4.914zm0-30.689c0 2.864-2.4 5.186-5.361 5.186H103c-2.961 0-5.362-2.322-5.362-5.186v-4.913c0-2.864 2.401-5.186 5.362-5.186h7.327c2.961 0 5.361 2.322 5.361 5.186v4.913z" stroke="#005F83" stroke-width="2"/></g><defs><filter id="bfilter0_d" x="0" y="0" width="145.939" height="187" filterUnits="userSpaceOnUse" color-interpolation-filters="sRGB"><feFlood flood-opacity="0" result="BackgroundImageFix"/><feColorMatrix in="SourceAlpha" values="0 0 0 0 0 0 0 0 0 0 0 0 0 0 0 0 0 0 127 0"/><feOffset dx="2" dy="2"/><feGaussianBlur stdDeviation="2"/><feColorMatrix values="0 0 0 0 0 0 0 0 0 0 0 0 0 0 0 0 0 0 0.25 0"/><feBlend in2="BackgroundImageFix" result="effect1_dropShadow"/><feBlend in="SourceGraphic" in2="effect1_dropShadow" result="shape"/></filter></defs></svg><svg viewBox="0 0 29 17" fill="#5C5C5C" id="email" xmlns="http://www.w3.org/2000/svg"><path d="M27.573-4.99a1.759 1.759 0 00-.362 0H2.464a1.759 1.759 0 00-.468.07l12.77 12.792L27.574-4.991z" fill="#005F83"/><path d="M28.881-3.755L16.013 9.134a1.762 1.762 0 01-2.492 0L.767-3.657c-.039.145-.06.294-.061.444v17.778c0 .471.186.924.517 1.257.332.333.781.52 1.25.52H27.22c.469 0 .918-.187 1.25-.52.331-.333.518-.786.518-1.257V-3.213a1.79 1.79 0 00-.107-.542zM3.684 14.565H2.456v-1.271l6.425-6.41 1.246 1.254-6.443 6.427zm23.518 0h-1.237l-6.443-6.427 1.246-1.253 6.425 6.409.01 1.27z"/></svg><svg fill="#fff" viewBox="0 0 37 37" id="facebook" xmlns="http://www.w3.org/2000/svg"><path d="M18.667.667c-9.942 0-18 8.107-18 18.11 0 9.038 6.582 16.53 15.188 17.89V24.01h-4.572v-5.234h4.572v-3.99c0-4.537 2.686-7.044 6.799-7.044 1.969 0 4.028.353 4.028.353v4.455h-2.268c-2.237 0-2.934 1.396-2.934 2.829v3.397h4.991l-.797 5.234H21.48v12.657c8.604-1.358 15.187-8.854 15.187-17.89 0-10.003-8.059-18.11-18-18.11z"/></svg><svg viewBox="0 0 32 32" fill="#fff" id="search" xmlns="http://www.w3.org/2000/svg"><path d="M29.71 28.29l-6.5-6.5h-.07a12 12 0 10-1.39 1.39v.07l6.5 6.5a1 1 0 001.42 0 1 1 0 00.04-1.46zM14 24a10 10 0 1110-10 10 10 0 01-10 10z"/></svg><svg viewBox="0 0 32 30" fill="#5C5C5C" id="tel" xmlns="http://www.w3.org/2000/svg"><path d="M13.44 17.311a17.994 17.994 0 006.54 4.258l3.333-2.667a.59.59 0 01.671 0l6.187 4.01a1.772 1.772 0 01.847 1.34 1.787 1.787 0 01-.555 1.486l-2.9 2.88a3.53 3.53 0 01-3.207.951 30.955 30.955 0 01-15.158-8A30.085 30.085 0 011.005 6.61a3.379 3.379 0 01.972-3.155L4.982.538A1.767 1.767 0 016.43.009a1.76 1.76 0 011.31.813l4.118 6.143a.562.562 0 010 .666l-2.713 3.28a17.561 17.561 0 004.296 6.4z"/></svg><svg viewBox="0 0 32 31" fill="#5C5C5C" id="time" xmlns="http://www.w3.org/2000/svg"><path d="M15.909 0C7.395 0 .496 6.938.496 15.5.497 24.063 7.395 31 15.91 31c8.513 0 15.41-6.938 15.41-15.5C31.32 6.937 24.423 0 15.91 0zm0 28c-6.867 0-12.43-5.594-12.43-12.5S9.043 3 15.91 3c6.866 0 12.428 5.594 12.428 12.5S22.775 28 15.91 28zm3.84-6.525l-5.276-3.856a.756.756 0 01-.305-.607V6.75a.75.75 0 01.746-.75h1.989a.75.75 0 01.745.75v8.856l4.152 3.038a.752.752 0 01.161 1.05l-1.168 1.619a.748.748 0 01-1.044.162z"/></svg><svg fill="#fff" viewBox="0 0 36 36" id="twitter" xmlns="http://www.w3.org/2000/svg"><path d="M18 .72C8.456.72.72 8.456.72 18S8.456 35.28 18 35.28 35.28 27.544 35.28 18 27.544.72 18 .72zm7.029 14.155c.007.148.009.295.009.44 0 4.5-3.422 9.685-9.682 9.685a9.603 9.603 0 01-5.217-1.53c.265.033.537.045.812.045a6.816 6.816 0 004.227-1.456 3.412 3.412 0 01-3.18-2.362 3.42 3.42 0 001.536-.059 3.406 3.406 0 01-2.73-3.337v-.042c.459.254.984.409 1.542.427a3.402 3.402 0 01-1.053-4.547 9.676 9.676 0 007.015 3.559 3.403 3.403 0 015.8-3.105 6.835 6.835 0 002.16-.826 3.42 3.42 0 01-1.496 1.884 6.841 6.841 0 001.954-.538 6.903 6.903 0 01-1.697 1.762z"/></svg><svg fill="#005F83" viewBox="0 0 10 10" id="vector-dark" xmlns="http://www.w3.org/2000/svg"><path d="M9.677.5l-4.875 9L0 .5h9.677z"/></svg><svg fill="#fff" viewBox="0 0 10 10" id="vector-white" xmlns="http://www.w3.org/2000/svg"><path d="M9.677.5l-4.875 9L0 .5h9.677z"/></svg><svg fill="#fff" viewBox="0 0 37 37" id="youtube" xmlns="http://www.w3.org/2000/svg"><path d="M18.277.5a18 18 0 10.002 36 18 18 0 00-.002-36zm3.16 6.74h1.6v5.36c0 .34.16.34.22.34.24 0 .6-.26.78-.44V7.22h1.6v7.08h-1.6v-.62c-.22.2-.44.36-.66.48-.3.16-.58.22-.86.22a1.039 1.039 0 01-.82-.34c-.18-.22-.26-.56-.26-.98V7.24zm-5.1 1.86c0-1.1.9-2 2-2s2 .9 2 2v3.4c0 1.1-.9 2-2 2s-2-.9-2-2V9.1zm-4.16-4.3l.96 3.52.98-3.52h1.82l-1.88 5.56v3.94h-1.78v-3.94l-1.92-5.56h1.82zm15.8 25.078c-1.02 1-9.66 1.02-9.66 1.02s-8.62-.02-9.66-1.02c-1.02-1-1.02-5.98-1.02-6.02 0-.02 0-4.999 1.02-6.019 1.02-1 9.66-1.02 9.66-1.02s8.62.02 9.66 1.02c1.02 1 1.04 5.98 1.04 6.02 0 0 0 5-1.04 6.02z"/></svg></svg>